<?xml version="1.0" ?><svg width="64px" height="64px" viewBox="0 0 64 64" xmlns="http://www.w3.org/2000/svg"><defs><style>.cls-1{fill:none;stroke:#000;stroke-linejoin:round;stroke-width:2px;}</style></defs><title/><g data-name="Layer 6" id="Layer_6"><rect class="cls-1" height="4" width="60" x="2" y="58"/><polyline class="cls-1" points="43 8 62 8 62 14 2 14 2 8 21 8"/><path class="cls-1" d="M4,14v6a4,4,0,0,0,4,4H8a4,4,0,0,0,4-4V14"/><path class="cls-1" d="M12,14v6a4,4,0,0,0,4,4h0a4,4,0,0,0,4-4V14"/><path class="cls-1" d="M20,14v6a4,4,0,0,0,4,4h0a4,4,0,0,0,4-4V14"/><path class="cls-1" d="M28,14v6a4,4,0,0,0,4,4h0a4,4,0,0,0,4-4V14"/><path class="cls-1" d="M36,14v6a4,4,0,0,0,4,4h0a4,4,0,0,0,4-4V14"/><path class="cls-1" d="M44,14v6a4,4,0,0,0,4,4h0a4,4,0,0,0,4-4V14"/><path class="cls-1" d="M52,14v6a4,4,0,0,0,4,4h0a4,4,0,0,0,4-4V14"/><polyline class="cls-1" points="6 23 6 58 58 58 58 23"/><rect class="cls-1" height="30" width="28" x="10" y="28"/><line class="cls-1" x1="10" x2="38" y1="46" y2="46"/><rect class="cls-1" height="4" width="20" x="14" y="50"/><line class="cls-1" x1="15" x2="23" y1="41" y2="33"/><line class="cls-1" x1="25" x2="33" y1="41" y2="33"/><rect class="cls-1" height="8" width="22" x="21" y="2"/><line class="cls-1" x1="24" x2="40" y1="6" y2="6"/><polyline class="cls-1" points="42 58 42 38 54 38 54 58"/><rect class="cls-1" height="4" width="12" x="42" y="30"/><line class="cls-1" x1="46" x2="46" y1="45" y2="49"/></g></svg>